# xmcd CD database file
#
# Track frame offsets:
#	183
#	13735
#	32548
#	42853
#	51965
#	65250
#	78298
#	93608
#	106528
#	119888
#	134798
#	146203
#	161170
#	171758
#	183713
#	196703
#	209608
#	232278
#
# Disc length: 3320 seconds
#
# Revision: 4
# Processed by: cddbd v1.5.2PL0 Copyright (c) Steve Scherf et al.
# Submitted via: CDex 1.51
#
DISCID=0e0cf612
DTITLE=Fleetwood Mac - The Blues Years (1)
DYEAR=1990
DGENRE=Blues Rock
TTITLE0=My Heart Beat Like a Hammer
TTITLE1=Merry Go Round
TTITLE2=Long Grey Mare
TTITLE3=Hell Hound On My Trail
TTITLE4=Shake Your Money Maker
TTITLE5=Looking For Somebody
TTITLE6=No Place To Go
TTITLE7=My Baby's Good To Me
TTITLE8=I Loved Another Woman
TTITLE9=Cold Black Night
TTITLE10=The World Keeps On Turning
TTITLE11=Got To Move
TTITLE12=Stop Messin' Around
TTITLE13=Coming Home
TTITLE14=Rollin' Man
TTITLE15=Dust My Broom
TTITLE16=Love That Burns
TTITLE17=Doctor Brown
EXTD=ESBCD 138/1 YEAR: 1990
EXTT0=
EXTT1=
EXTT2=
EXTT3=
EXTT4=
EXTT5=
EXTT6=
EXTT7=
EXTT8=
EXTT9=
EXTT10=
EXTT11=
EXTT12=
EXTT13=
EXTT14=
EXTT15=
EXTT16=
EXTT17=
PLAYORDER=
